HIERARCHY
ROOT Hips
{
	OFFSET	0.00	0.00	0.00
	CHANNELS 6 Xposition Yposition Zposition Zrotation Xrotation Yrotation
	JOINT LeftUpperLeg
	{
		OFFSET	 0.100000	-0.066564	-0.000554
		CHANNELS 3 Zrotation Xrotation Yrotation
		JOINT LeftLowerLeg
		{
			OFFSET	 0.002447	-0.463436	-0.005172
			CHANNELS 3 Zrotation Xrotation Yrotation
			JOINT LeftFoot
			{
				OFFSET	-0.002447	-0.420480	-0.020576
				CHANNELS 3 Zrotation Xrotation Yrotation
				JOINT LeftToes
				{
					OFFSET	 0.003734	-0.104922	 0.126407
					CHANNELS 3 Zrotation Xrotation Yrotation
					End Site
					{
						OFFSET	 0.000000	 0.000000	 0.059955
					}
				}
			}
		}
	}
	JOINT RightUpperLeg
	{
		OFFSET	-0.100000	-0.066564	-0.000554
		CHANNELS 3 Zrotation Xrotation Yrotation
		JOINT RightLowerLeg
		{
			OFFSET	-0.002447	-0.463436	-0.005146
			CHANNELS 3 Zrotation Xrotation Yrotation
			JOINT RightFoot
			{
				OFFSET	 0.002447	-0.420479	-0.020602
				CHANNELS 3 Zrotation Xrotation Yrotation
				JOINT RightToes
				{
					OFFSET	-0.003734	-0.104922	 0.126407
					CHANNELS 3 Zrotation Xrotation Yrotation
					End Site
					{
						OFFSET	-0.000000	 0.000000	 0.059955
					}
				}
			}
		}
	}
	JOINT Spine
	{
		OFFSET	 0.000000	 0.099235	-0.012273
		CHANNELS 3 Zrotation Xrotation Yrotation
		JOINT Chest
		{
			OFFSET	-0.000001	 0.116455	-0.014223
			CHANNELS 3 Zrotation Xrotation Yrotation
			JOINT UpperChest
			{
				OFFSET	 0.000001	 0.133602	-0.016265
				CHANNELS 3 Zrotation Xrotation Yrotation
				JOINT LeftShoulder
				{
					OFFSET	 0.061058	 0.091105	 0.007056
					CHANNELS 3 Zrotation Xrotation Yrotation
					JOINT LeftUpperArm
					{
						OFFSET	 0.133942	-0.002659	-0.026009
						CHANNELS 3 Zrotation Xrotation Yrotation
						JOINT LeftLowerArm
						{
							OFFSET	 0.274047	 0.000000	 0.000000
							CHANNELS 3 Zrotation Xrotation Yrotation
							JOINT LeftHand
							{
								OFFSET	 0.276145	 0.000000	 0.000000
								CHANNELS 3 Zrotation Xrotation Yrotation
								End Site
								{
									OFFSET	 0.165687	 0.000000	 0.000000
								}
							}
						}
					}
				}
				JOINT Neck
				{
					OFFSET	 0.000000	 0.150325	 0.007929
					CHANNELS 3 Zrotation Xrotation Yrotation
					JOINT Head
					{
						OFFSET	 0.000000	 0.103218	 0.031424
						CHANNELS 3 Zrotation Xrotation Yrotation
						End Site
						{
							OFFSET	 0.000000	 0.061931	 0.018855
						}
					}
				}
				JOINT RightShoulder
				{
					OFFSET	-0.061057	 0.091105	 0.007056
					CHANNELS 3 Zrotation Xrotation Yrotation
					JOINT RightUpperArm
					{
						OFFSET	-0.133943	-0.002660	-0.026009
						CHANNELS 3 Zrotation Xrotation Yrotation
						JOINT RightLowerArm
						{
							OFFSET	-0.274047	 0.000000	 0.000000
							CHANNELS 3 Zrotation Xrotation Yrotation
							JOINT RightHand
							{
								OFFSET	-0.276145	 0.000000	 0.000000
								CHANNELS 3 Zrotation Xrotation Yrotation
								End Site
								{
									OFFSET	-0.165687	 0.000000	 0.000000
								}
							}
						}
					}
				}
			}
		}
	}
}
MOTION
Frames:    5
Frame Time: 0.03333334
-0.116320	 1.069280	 0.605690	-8.626379	 12.521420	 8.646118	 2.978012	-17.297660	 11.862580	-0.002650	 0.083565	-0.000329	 5.203727	 2.450551	 12.894200	-0.000791	 0.470714	-0.000583	-1.482581	-22.382600	-25.152650	-0.125208	 4.091525	 0.007562	-3.690143	 20.659350	-4.671175	-0.000418	-7.956770	-0.000095	 0.399909	 1.705550	-0.378016	-0.000000	 0.000000	 0.000000	 0.812885	 3.412787	-0.771133	 7.682157	-1.180083	 11.174520	-78.038660	 9.498848	-41.445610	 2.029763	 3.980449	-35.924790	 60.380660	 27.088130	-40.077610	 11.269320	 5.164778	 10.874880	 11.538210	 5.371656	 11.218720	-5.797220	 1.770497	-15.639090	 88.257840	 23.744220	 31.711610	 8.814120	 26.752860	 64.619810	-45.073710	 3.050180	 25.418530
-0.122150	 1.069470	 0.592870	-8.507973	 12.936640	 7.666881	 3.389674	-18.413130	 12.247130	-0.001504	 0.083326	-0.000704	 5.053540	 3.335836	 13.524900	-0.000452	 0.452021	 0.000385	-2.836020	-28.202860	-23.106320	-0.316897	 12.484270	 0.043065	-4.374656	 21.532870	-5.652357	 0.000683	-10.951590	 0.000412	 0.405012	 1.591934	-0.661350	-0.000000	 0.000000	 0.000000	 0.831451	 3.184284	-1.337165	 8.037089	-0.837779	 11.608730	-78.144690	 8.006824	-39.816920	-2.307001	 2.742780	-37.022100	 56.840070	 20.028780	-34.493170	 10.802530	 5.672359	 11.057140	 10.737050	 5.832951	 11.295170	-5.020120	 2.020792	-16.307570	 88.935510	 21.094760	 28.061430	 17.905830	 28.746360	 63.322300	-37.790820	-3.142685	 20.522160
-0.126620	 1.069170	 0.583370	-8.302327	 13.113790	 6.667692	 3.707898	-19.064790	 12.722440	-0.001963	 0.093166	-0.000388	 5.050809	 4.037707	 14.003470	-0.000474	 0.409721	-0.000605	-2.967046	-30.808510	-20.912420	-0.334385	 15.277770	 0.051730	-4.397385	 23.512810	-6.087718	-0.000557	-13.035260	-0.000156	 0.454030	 1.521681	-0.733267	-0.000000	 0.000000	 0.000000	 0.927230	 3.041496	-1.481896	 7.664004	 0.628869	 12.134330	-78.316670	 7.222805	-37.724000	-4.653385	 2.376825	-41.261430	 57.175260	 16.721330	-33.036720	 10.343000	 5.731516	 11.318450	 10.232750	 5.894015	 11.432510	-4.936262	 2.187640	-16.472110	 88.602420	 19.829190	 25.572180	 23.378850	 29.061750	 61.782620	-38.122940	-8.210908	 20.829220
-0.130930	 1.068980	 0.575350	-8.077207	 13.213960	 5.862603	 3.973925	-19.546200	 13.381350	-0.001196	 0.078275	-0.000363	 4.954824	 4.567363	 14.204610	-0.000461	 0.412287	 0.000293	-2.799743	-32.504110	-19.207120	-0.317586	 16.755290	 0.049539	-5.053221	 25.130690	-6.000412	 0.000091	-14.069280	-0.000350	 0.393591	 1.528971	-0.701375	-0.000000	 0.000000	 0.000000	 0.810584	 3.058910	-1.417631	 7.216824	 1.494095	 12.665540	-79.088910	 5.353986	-35.642850	-6.534733	 3.401816	-45.202130	 57.344660	 13.587300	-32.946330	 10.035730	 5.953326	 11.550990	 10.158660	 5.930069	 11.496680	-5.019895	 2.343452	-16.651690	 88.313730	 19.441200	 23.348040	 23.697860	 29.373830	 63.120660	-38.457490	-8.726717	 21.681160
-0.134850	 1.068430	 0.567060	-7.691304	 13.260360	 5.099069	 4.048420	-19.991920	 13.941740	-0.000582	 0.083071	-0.000285	 4.884664	 5.105489	 14.371910	 0.000368	 0.409503	 0.000444	-2.861600	-34.093140	-17.667660	-0.313049	 18.115740	 0.047324	-5.296941	 26.924190	-5.644171	 0.000188	-15.618410	-0.000190	 0.377031	 1.496562	-0.652080	-0.000000	 0.000000	 0.000000	 0.771585	 2.995280	-1.318148	 7.496736	 1.815231	 11.370900	-80.250960	 2.163722	-32.688370	-8.935148	 4.392031	-49.225280	 56.438930	 10.019780	-32.324680	 9.813996	 5.632610	 11.591150	 9.861509	 5.680935	 11.482890	-5.092493	 2.461451	-16.881350	 88.248570	 18.833210	 21.482340	 23.965280	 29.192620	 63.650690	-39.243690	-8.823432	 25.274030
